<?xml version="1.0" encoding="utf-8" standalone="no"?>
<!DOCTYPE svg PUBLIC "-//W3C//DTD SVG 1.1//EN"
  "http://www.w3.org/Graphics/SVG/1.1/DTD/svg11.dtd">
<svg xmlns:xlink="http://www.w3.org/1999/xlink" width="368.64pt" height="368.64pt" viewBox="0 0 368.64 368.64" xmlns="http://www.w3.org/2000/svg" version="1.1">
 <metadata>
  <rdf:RDF xmlns:dc="http://purl.org/dc/elements/1.1/" xmlns:cc="http://creativecommons.org/ns#" xmlns:rdf="http://www.w3.org/1999/02/22-rdf-syntax-ns#">
   <cc:Work>
    <dc:type rdf:resource="http://purl.org/dc/dcmitype/StillImage"/>
    <dc:date>2026-09-14T00:04:27.022663</dc:date>
    <dc:format>image/svg+xml</dc:format>
    <dc:creator>
     <cc:Agent>
      <dc:title>Matplotlib v3.11.0, https://matplotlib.org/</dc:title>
     </cc:Agent>
    </dc:creator>
   </cc:Work>
  </rdf:RDF>
 </metadata>
 <defs>
  <style type="text/css">*{stroke-linejoin: round; stroke-linecap: butt}</style>
 </defs>
 <g id="figure_1">
  <g id="patch_1">
   <path d="M 0 368.64
L 368.64 368.64
L 368.64 0
L 0 0
L 0 368.64
z
" style="fill: none"/>
  </g>
  <g id="axes_1">
   <g id="line2d_1">
    <path d="M 39.497143 284.136369
L 43.863661 284.001861
L 48.230179 283.667985
L 54.052204 282.961661
L 59.874228 281.983783
L 65.696253 280.752445
L 71.518277 279.280232
L 77.340302 277.576697
L 83.162326 275.649483
L 88.98435 273.504928
L 94.806375 271.14842
L 100.628399 268.584635
L 106.450424 265.817688
L 113.727954 262.078862
L 121.005485 258.034684
L 128.283015 253.69082
L 135.560546 249.052362
L 142.838076 244.12392
L 150.115607 238.909703
L 157.393137 233.413579
L 164.670668 227.639118
L 171.948198 221.589639
L 179.225729 215.268234
L 186.503259 208.677798
L 193.78079 201.821051
L 201.05832 194.700555
L 209.791357 185.81121
L 218.524393 176.549491
L 227.25743 166.919104
L 235.990467 156.923547
L 244.723503 146.566125
L 253.45654 135.849974
L 262.189576 124.778072
L 270.922613 113.353255
L 279.65565 101.578228
L 288.388686 89.455577
L 297.121723 76.987778
L 305.85476 64.177202
L 316.043302 48.801334
L 326.231845 32.965475
L 329.142857 28.356923
L 329.142857 28.356923
" style="fill: none; stroke: #004488; stroke-width: 36; stroke-linecap: round"/>
   </g>
   <g id="line2d_2">
    <path d="M 39.497143 312.209723
L 45.319167 312.063808
L 51.141192 311.701617
L 58.418722 310.992164
L 65.696253 310.022553
L 72.973783 308.809541
L 80.251314 307.364915
L 87.528844 305.697681
L 94.806375 303.815073
L 102.083905 301.723108
L 109.361436 299.426913
L 116.638966 296.930943
L 125.372003 293.677576
L 134.105039 290.148166
L 142.838076 286.348018
L 151.571113 282.281879
L 160.304149 277.954036
L 169.037186 273.368389
L 177.770223 268.528518
L 186.503259 263.43772
L 195.236296 258.099052
L 203.969332 252.51536
L 212.702369 246.689306
L 221.435406 240.623385
L 230.168442 234.319947
L 240.356985 226.668693
L 250.545528 218.700483
L 260.73407 210.418442
L 270.922613 201.825515
L 281.111156 192.924491
L 291.299698 183.718013
L 301.488241 174.208597
L 311.676784 164.398635
L 321.865327 154.290414
L 329.142857 146.888862
L 329.142857 146.888862
" style="fill: none; stroke: #ddaa33; stroke-width: 36; stroke-linecap: round"/>
   </g>
   <g id="line2d_3">
    <path d="M 39.497143 338.3259
L 51.141192 337.636702
L 61.329734 336.844611
L 71.518277 335.827056
L 80.251314 334.732888
L 88.98435 333.390827
L 96.261881 332.050577
L 103.539411 330.47918
L 110.816942 328.648727
L 116.638966 326.979872
L 122.460991 325.115941
L 128.283015 323.046926
L 134.105039 320.765921
L 139.927064 318.270094
L 145.749088 315.56164
L 151.571113 312.648622
L 158.848643 308.742474
L 166.126174 304.583102
L 174.85921 299.34143
L 205.424838 280.714507
L 212.702369 276.650202
L 219.979899 272.858358
L 225.801924 270.046221
L 231.623948 267.443456
L 237.445973 265.055101
L 243.267997 262.880723
L 249.090022 260.91533
L 254.912046 259.150345
L 262.189576 257.208684
L 269.467107 255.536981
L 276.744637 254.107634
L 284.022168 252.892725
L 292.755205 251.680019
L 301.488241 250.694146
L 311.676784 249.779577
L 323.320833 248.981712
L 329.142857 248.662408
L 329.142857 248.662408
" style="fill: none; stroke: #bb5566; stroke-width: 36; stroke-linecap: round"/>
   </g>
  </g>
 </g>
</svg>
